<svg xmlns="http://www.w3.org/2000/svg" xmlns:xlink="http://www.w3.org/1999/xlink" width="260" height="60" viewBox="-5 -2.5 260 60" enable-background="new -5 -2.5 260 60"><image overflow="visible" opacity=".75" width="264" height="68" xlink:href="837A8E08.png" transform="translate(-6.878 -6.378)"/><g fill="#FFA500"><path d="M6.086 51.875H2.61l-.602 1.29c-.14.313-.233.56-.233.708 0 .116.082.233.2.32.14.103.41.165.84.19v.22H0v-.22c.373-.064.615-.136.736-.242.215-.183.474-.577.742-1.163L4.62 46.28h.236l3.114 6.77c.254.542.48.903.677 1.064.213.158.496.246.86.27v.22H5.98v-.22c.356-.02.595-.07.72-.167.134-.085.185-.198.185-.336 0-.18-.09-.45-.267-.83l-.532-1.175zm-.19-.44l-1.516-3.29-1.565 3.29h3.08zM20.166 46.69v-.23h3.16v.23H23c-.367 0-.62.127-.825.392-.082.13-.134.413-.134.882v3.293c0 .814-.087 1.447-.262 1.897-.174.453-.532.83-1.057 1.157-.513.323-1.216.482-2.124.482-.975 0-1.718-.15-2.217-.46-.515-.316-.867-.726-1.085-1.242-.134-.356-.203-1.027-.203-2.007v-3.18c0-.496-.078-.83-.228-.98-.153-.164-.404-.235-.736-.235h-.34v-.23h3.867v.23h-.348c-.365 0-.627.1-.79.32-.106.14-.165.436-.165.894v3.55c0 .312.037.677.097 1.083.067.407.184.734.346.956.17.237.416.416.725.568.316.145.696.225 1.15.225.596 0 1.12-.124 1.58-.352.466-.233.775-.525.947-.89.167-.367.26-.978.26-1.834v-3.304c0-.507-.07-.82-.193-.944-.176-.178-.433-.27-.76-.27h-.338zM35.348 46.46l.104 1.915h-.246c-.05-.337-.115-.578-.2-.725-.138-.227-.323-.406-.544-.51-.235-.11-.53-.16-.895-.16h-1.26v6.21c0 .503.052.808.174.94.167.166.434.253.778.253h.308v.22h-3.802v-.22h.313c.393 0 .65-.113.812-.318.093-.126.143-.42.143-.874v-6.21h-1.07c-.425 0-.725.027-.902.084-.227.072-.416.214-.583.43-.164.22-.26.52-.296.882h-.244l.11-1.916h7.302zM44.537 46.277c1.17 0 2.173.403 3.028 1.215.85.792 1.274 1.8 1.274 2.985 0 1.24-.433 2.274-1.277 3.083-.874.82-1.916 1.23-3.125 1.23-1.233 0-2.27-.403-3.105-1.2-.837-.788-1.254-1.826-1.254-3.087 0-1.286.487-2.348 1.45-3.158.834-.713 1.845-1.068 3.007-1.068zm-.117.433c-.798 0-1.446.285-1.927.818-.61.67-.913 1.66-.913 2.95 0 1.33.317 2.358.937 3.065.493.547 1.126.818 1.915.818.835 0 1.53-.295 2.074-.89.554-.604.83-1.54.83-2.826 0-1.39-.316-2.43-.907-3.11-.49-.54-1.153-.824-2.01-.824zM70.21 46.46v.228c-.326.05-.566.14-.73.275-.227.197-.434.494-.612.9l-3.13 6.93h-.242l-3.35-7.017c-.18-.362-.298-.585-.368-.662-.104-.12-.246-.224-.4-.297-.166-.06-.37-.112-.655-.128v-.23h3.66v.23c-.42.034-.694.1-.804.19-.12.093-.187.202-.187.355 0 .2.106.51.296.937l2.293 4.772 2.103-4.71c.205-.464.31-.788.31-.965 0-.122-.06-.238-.187-.34-.136-.1-.34-.172-.652-.224-.016 0-.06-.01-.115-.016v-.23h2.768zM77.243 46.91v3.213h1.97c.512 0 .86-.068 1.03-.21.225-.185.353-.503.385-.965h.237v2.83h-.237c-.068-.402-.126-.647-.185-.773-.083-.134-.215-.25-.396-.32-.175-.08-.455-.125-.834-.125h-1.97v2.682c0 .364.022.58.052.663.04.076.112.142.19.184.094.046.26.07.506.07h1.514c.517 0 .884-.03 1.096-.102.237-.06.454-.186.67-.377.264-.24.55-.62.834-1.122h.272l-.782 2.043h-6.892v-.22h.327c.204 0 .403-.048.588-.136.14-.074.234-.16.28-.29.052-.133.08-.395.08-.792v-5.28c0-.52-.057-.846-.167-.956-.156-.17-.42-.24-.78-.24H74.7v-.23h6.892l.096 1.796h-.25c-.087-.43-.198-.726-.312-.89-.102-.15-.27-.282-.492-.368-.176-.057-.495-.085-.93-.085h-2.463zM94.565 46.46l.09 1.915h-.25c-.048-.337-.114-.578-.197-.725-.134-.227-.316-.406-.543-.51-.234-.11-.532-.16-.894-.16h-1.266v6.21c0 .503.062.808.187.94.158.166.427.253.766.253h.315v.22h-3.8v-.22h.317c.385 0 .653-.113.805-.318.106-.126.14-.42.14-.874v-6.21h-1.058c-.42 0-.73.027-.905.084-.22.072-.42.214-.585.43-.16.22-.258.52-.296.882h-.237l.1-1.916h7.312zM101.87 46.91v3.213h1.97c.517 0 .844-.068 1.03-.21.228-.185.348-.503.372-.965h.257v2.83h-.258c-.058-.402-.117-.647-.187-.773-.076-.134-.2-.25-.378-.32-.182-.08-.458-.125-.837-.125h-1.97v2.682c0 .364.025.58.053.663.03.076.106.142.187.184.088.046.25.07.508.07h1.518c.496 0 .87-.03 1.098-.102.228-.06.45-.186.66-.377.275-.24.55-.62.83-1.122h.28l-.78 2.043h-6.9v-.22h.318c.207 0 .406-.048.6-.136.134-.074.234-.16.288-.29.05-.133.074-.395.074-.792v-5.28c0-.52-.053-.846-.167-.956-.156-.17-.426-.24-.795-.24h-.32v-.23h6.902l.093 1.796h-.253c-.087-.43-.195-.726-.313-.89-.095-.15-.27-.282-.488-.368-.177-.057-.495-.085-.925-.085h-2.468zM120.503 54.603h-2.4l-3.024-3.805c-.228.013-.412.013-.552.013h-.176c-.07 0-.14-.012-.207-.012v2.366c0 .513.053.825.178.952.164.18.412.267.756.267h.354v.22h-3.844v-.22h.333c.39 0 .66-.113.816-.335.1-.122.132-.42.132-.884v-5.262c0-.507-.055-.828-.176-.944-.175-.178-.424-.27-.773-.27h-.333v-.228h3.262c.948 0 1.655.07 2.1.196.448.128.834.355 1.15.696.315.336.467.74.467 1.203 0 .513-.177.944-.532 1.306-.35.377-.918.633-1.666.786l1.847 2.332c.425.535.784.89 1.085 1.072.306.167.706.285 1.198.335v.218zm-6.358-4.182h.207c.065 0 .118.007.16.007.846 0 1.493-.166 1.928-.51.436-.327.65-.762.65-1.28 0-.51-.177-.924-.53-1.235-.337-.32-.8-.48-1.384-.48-.262 0-.602.04-1.03.11v3.39zM130.62 51.875h-3.47l-.61 1.29c-.15.313-.215.56-.215.708 0 .116.057.233.185.32.134.103.413.165.846.19v.22h-2.822v-.22c.37-.064.623-.136.722-.242.235-.183.48-.577.754-1.163l3.148-6.698h.235l3.112 6.77c.252.542.473.903.692 1.064.195.158.482.246.844.27v.22h-3.527v-.22c.355-.02.596-.07.72-.167.128-.085.19-.198.19-.336 0-.18-.093-.45-.26-.83l-.544-1.175zm-.187-.44l-1.514-3.29-1.564 3.29h3.077zM138.072 46.46h2.434l5.468 6.116v-4.704c0-.505-.058-.81-.183-.934-.162-.17-.426-.25-.775-.25h-.31v-.23h3.123v.23h-.32c-.377 0-.65.1-.812.307-.098.14-.132.43-.132.877v6.866h-.25l-5.895-6.552v5.005c0 .503.058.808.185.94.163.166.415.253.766.253h.327v.22h-3.125v-.22h.31c.386 0 .656-.113.813-.318.093-.126.148-.42.148-.874v-5.655c-.256-.272-.463-.46-.592-.54-.14-.1-.34-.178-.587-.255-.142-.034-.322-.05-.59-.05v-.23zM167.64 46.277l.205 2.77h-.205c-.275-.832-.66-1.424-1.16-1.785-.51-.373-1.113-.558-1.825-.558-.59 0-1.13.142-1.605.413-.492.277-.865.723-1.14 1.315-.273.606-.416 1.346-.416 2.236 0 .732.13 1.384.4 1.918.263.534.642.956 1.16 1.24.528.29 1.118.435 1.783.435.59 0 1.11-.11 1.542-.335.45-.234.934-.684 1.464-1.35l.216.123c-.455.72-.973 1.252-1.577 1.59-.6.336-1.314.503-2.132.503-1.48 0-2.64-.495-3.445-1.498-.615-.74-.905-1.626-.905-2.634 0-.818.187-1.555.59-2.238.405-.678.95-1.207 1.654-1.58.707-.366 1.472-.562 2.305-.562.65 0 1.286.148 1.91.427.187.092.31.142.397.142.117 0 .23-.046.31-.114.117-.108.198-.26.25-.455h.223zM177.516 46.277c1.164 0 2.165.403 3.025 1.215.858.792 1.28 1.8 1.28 2.985 0 1.24-.437 2.274-1.29 3.083-.86.82-1.898 1.23-3.115 1.23-1.233 0-2.265-.403-3.1-1.2-.84-.788-1.267-1.826-1.267-3.087 0-1.286.486-2.348 1.453-3.158.85-.713 1.844-1.068 3.016-1.068zm-.127.433c-.792 0-1.435.285-1.926.818-.602.67-.903 1.66-.903 2.95 0 1.33.31 2.358.937 3.065.485.547 1.12.818 1.91.818.834 0 1.523-.295 2.072-.89.555-.604.828-1.54.828-2.826 0-1.39-.31-2.43-.9-3.11-.49-.54-1.162-.824-2.02-.824zM191.93 54.603l-3.47-6.846v5.435c0 .502.066.807.188.94.157.165.42.252.77.252h.31v.22h-3.114v-.22h.315c.386 0 .647-.113.81-.318.096-.126.148-.42.148-.874v-5.318c0-.353-.053-.61-.128-.772-.076-.12-.188-.222-.346-.3-.165-.077-.433-.112-.8-.112v-.23h2.54l3.247 6.378 3.19-6.377h2.537v.23h-.316c-.38 0-.648.1-.806.307-.094.14-.146.43-.146.877v5.318c0 .502.065.807.188.94.163.165.412.252.765.252h.317v.22h-3.798v-.22h.316c.38 0 .648-.113.8-.318.106-.126.144-.42.144-.874v-5.435l-3.45 6.846h-.21zM205.24 50.798v2.366c0 .513.06.825.186.952.172.18.416.267.755.267h.352v.22h-3.838v-.22h.334c.385 0 .654-.113.818-.335.073-.122.127-.42.127-.884v-5.262c0-.507-.054-.828-.168-.944-.17-.178-.435-.27-.777-.27h-.334v-.228h3.28c.798 0 1.434.08 1.89.23.47.15.858.398 1.173.755.315.356.466.788.466 1.28 0 .66-.234 1.192-.712 1.613-.485.42-1.156.627-2.055.627-.204 0-.438-.013-.696-.042-.24-.04-.51-.075-.8-.125zm0-.35c.24.043.436.074.618.102.178.004.334.023.462.023.462 0 .86-.167 1.18-.482.34-.318.504-.74.504-1.257 0-.35-.082-.68-.235-.974-.17-.308-.385-.533-.68-.68-.28-.148-.615-.222-.98-.222-.234 0-.512.038-.87.106v3.383zM218.99 51.875h-3.478l-.596 1.29c-.15.313-.232.56-.232.708 0 .116.076.233.206.32.128.103.397.165.83.19v.22h-2.81v-.22c.373-.064.612-.136.725-.242.223-.183.465-.577.747-1.163l3.155-6.698h.214l3.127 6.77c.25.542.478.903.685 1.064.2.158.487.246.848.27v.22h-3.536v-.22c.363-.02.6-.07.728-.167.124-.085.19-.198.19-.336 0-.18-.083-.45-.265-.83l-.538-1.175zm-.182-.44l-1.52-3.29-1.57 3.29h3.09zM226.44 46.46h2.423l5.473 6.116v-4.704c0-.505-.056-.81-.19-.934-.15-.17-.412-.25-.77-.25h-.306v-.23h3.117v.23h-.318c-.38 0-.642.1-.8.307-.107.14-.15.43-.15.877v6.866h-.23l-5.916-6.552v5.005c0 .503.065.808.186.94.17.166.422.253.773.253h.32v.22h-3.124v-.22h.314c.38 0 .648-.113.81-.318.1-.126.142-.42.142-.874v-5.655c-.25-.272-.45-.46-.58-.54-.144-.1-.33-.178-.602-.255-.114-.034-.313-.05-.577-.05v-.23h.002zM246.88 46.46H250v.228h-.17c-.118 0-.287.05-.498.14-.23.088-.43.216-.614.394-.18.172-.39.452-.664.834l-2.143 3.096v2.038c0 .502.053.807.178.94.16.165.418.252.792.252h.286v.22h-3.796v-.22h.31c.38 0 .648-.113.806-.318.1-.126.152-.42.152-.874v-1.92l-2.452-3.41c-.31-.403-.5-.647-.603-.752-.1-.097-.322-.218-.63-.355-.1-.047-.234-.063-.392-.063v-.23h3.834v.23h-.2c-.21 0-.41.044-.574.128-.18.094-.267.222-.267.4 0 .147.142.407.408.788l1.87 2.615 1.758-2.51c.256-.367.392-.657.392-.84 0-.11-.037-.212-.094-.297-.066-.093-.15-.155-.272-.212-.125-.048-.3-.07-.534-.07v-.23z"/></g><g fill="#FFA500"><path d="M102.896 22.688H89.402l-2.35 5.157c-.588 1.278-.868 2.22-.868 2.853 0 .504.252.933.75 1.3.506.395 1.598.63 3.272.744v.885H79.24v-.885c1.455-.248 2.406-.557 2.826-.945.882-.763 1.847-2.33 2.903-4.686L97.216.21h.905l12.112 27.186c.985 2.18 1.866 3.602 2.657 4.245.796.654 1.914 1.017 3.336 1.1v.886h-13.74v-.885c1.388-.07 2.322-.28 2.81-.655.488-.363.727-.818.727-1.345 0-.707-.34-1.822-1.02-3.347l-2.107-4.705zm-.72-1.777l-5.91-13.217-6.06 13.218h11.97zM142.118.955v.885c-1.24.218-2.174.58-2.802 1.115-.905.79-1.713 1.99-2.414 3.614l-12.154 27.806h-.947L110.76 6.213c-.67-1.446-1.142-2.336-1.423-2.65-.42-.5-.946-.898-1.568-1.172-.638-.28-1.467-.467-2.53-.55V.955h14.227v.885c-1.618.147-2.65.41-3.14.776-.48.37-.717.842-.717 1.42 0 .804.393 2.06 1.177 3.763l8.865 19.154 8.224-18.91c.795-1.87 1.205-3.16 1.205-3.884 0-.47-.245-.91-.742-1.34-.507-.42-1.342-.727-2.522-.902-.083-.014-.234-.04-.44-.08V.956h10.742zM169.152.208l.8 11.107h-.8c-1.052-3.32-2.563-5.716-4.544-7.182-1.966-1.46-4.318-2.194-7.077-2.194-2.312 0-4.402.556-6.27 1.653-1.852 1.102-3.33 2.855-4.4 5.263-1.068 2.415-1.61 5.406-1.61 8.998 0 2.945.513 5.514 1.522 7.68 1.006 2.167 2.53 3.828 4.558 4.985 2.03 1.165 4.342 1.74 6.944 1.74 2.265 0 4.262-.463 5.985-1.366 1.728-.905 3.63-2.708 5.692-5.408l.808.486c-1.747 2.902-3.785 5.033-6.122 6.38-2.33 1.35-5.088 2.025-8.298 2.025-5.758 0-10.228-1.998-13.393-6.026-2.357-2.988-3.55-6.502-3.55-10.545 0-3.266.782-6.265 2.34-8.993 1.555-2.734 3.704-4.857 6.427-6.354 2.74-1.503 5.71-2.25 8.96-2.25 2.506 0 4.99.58 7.438 1.73.722.36 1.24.538 1.548.538.454 0 .863-.152 1.203-.462.442-.434.764-1.04.95-1.807h.89z"/></g><path fill="#FFA500" d="M0 16.74h72.252v1.104H0zM177.756 16.74H250v1.104h-72.244z"/></svg>