<svg xmlns="http://www.w3.org/2000/svg" width="200" height="44" viewBox="0 0 200 44"><path d="M4.87 41.5H2.087l-.482 1.032c-.112.25-.186.448-.186.567 0 .092.065.185.16.256.11.082.328.13.672.152v.176H0v-.176c.298-.052.492-.11.59-.195.17-.147.378-.462.592-.93l2.514-5.36h.19l2.49 5.417c.203.433.384.723.54.85.17.128.398.197.69.218v.176H4.784v-.176c.285-.017.476-.058.575-.134.107-.068.148-.158.148-.27 0-.144-.07-.36-.214-.664l-.425-.94zm-.153-.353l-1.213-2.63-1.252 2.63h2.465zM16.133 37.35v-.182h2.528v.183h-.26c-.294 0-.497.103-.66.315-.066.105-.108.33-.108.705v2.635c0 .65-.07 1.158-.21 1.518-.14.363-.425.663-.846.926-.41.257-.973.384-1.7.384-.78 0-1.375-.12-1.774-.367-.41-.253-.693-.58-.867-.995-.107-.285-.162-.822-.162-1.605v-2.545c0-.396-.062-.662-.182-.783-.12-.132-.322-.19-.588-.19h-.27v-.182h3.09v.183h-.277c-.292 0-.502.082-.632.256-.085.112-.132.35-.132.716v2.84c0 .25.03.543.08.867.053.325.147.586.277.764.136.19.332.332.58.454.252.116.556.18.92.18.476 0 .895-.1 1.262-.282.372-.187.62-.42.757-.714.134-.293.208-.78.208-1.467v-2.643c0-.406-.056-.656-.153-.755-.14-.142-.347-.215-.608-.215h-.27zM28.28 37.167l.083 1.533h-.196c-.04-.27-.092-.462-.16-.58-.11-.182-.258-.325-.435-.41-.188-.086-.423-.126-.716-.126h-1.01v4.97c0 .4.043.645.14.75.134.133.347.202.623.202h.245v.176h-3.042v-.176h.25c.315 0 .52-.09.65-.254.074-.1.114-.337.114-.7v-4.968h-.857c-.34 0-.58.022-.72.067-.183.06-.335.172-.468.346-.13.175-.208.415-.236.704h-.196l.087-1.533h5.842zM35.63 37.022c.935 0 1.738.322 2.422.972.68.634 1.02 1.44 1.02 2.388 0 .99-.347 1.82-1.022 2.467-.7.656-1.533.983-2.5.983-.987 0-1.817-.323-2.484-.96-.67-.63-1.003-1.462-1.003-2.47 0-1.028.39-1.878 1.162-2.526.667-.572 1.475-.855 2.405-.855zm-.094.346c-.64 0-1.157.228-1.54.654-.49.535-.73 1.33-.73 2.36 0 1.064.252 1.886.748 2.452.394.438.9.655 1.532.655.668 0 1.224-.238 1.66-.714.443-.483.662-1.233.662-2.26 0-1.113-.252-1.944-.725-2.488-.39-.432-.922-.66-1.607-.66zM56.17 37.167v.183c-.263.04-.454.113-.586.22-.182.158-.347.395-.49.72l-2.504 5.543h-.194l-2.68-5.613c-.145-.29-.238-.468-.295-.53-.083-.095-.196-.18-.32-.238-.133-.048-.296-.09-.524-.102v-.183h2.928v.183c-.336.028-.555.08-.643.152-.095.074-.148.162-.148.284 0 .16.084.408.237.75l1.834 3.816 1.682-3.768c.164-.37.248-.63.248-.772 0-.096-.05-.19-.15-.27-.108-.08-.27-.14-.52-.18-.014 0-.05-.008-.093-.013v-.184h2.22zM61.795 37.528v2.57h1.575c.41 0 .688-.054.824-.168.18-.148.283-.402.31-.772h.19v2.264h-.19c-.056-.32-.102-.518-.15-.618-.066-.107-.17-.2-.316-.257-.14-.062-.364-.1-.667-.1h-1.574v2.146c0 .29.017.464.04.53.034.062.09.115.153.148.074.04.207.057.404.057h1.21c.415 0 .708-.024.878-.08.19-.05.363-.15.535-.302.212-.194.442-.497.668-.898h.217l-.625 1.635h-5.514v-.176h.26c.165 0 .324-.04.473-.11.112-.058.187-.127.225-.232.042-.106.065-.315.065-.633v-4.223c0-.417-.046-.677-.135-.765-.126-.135-.336-.192-.626-.192h-.26v-.183h5.513l.077 1.436h-.2c-.07-.344-.158-.58-.25-.712-.082-.12-.216-.225-.394-.294-.14-.046-.396-.068-.743-.068h-1.972zM75.652 37.167l.072 1.533h-.2c-.038-.27-.09-.462-.157-.58-.107-.182-.252-.325-.435-.41-.187-.086-.425-.126-.715-.126h-1.014v4.97c0 .4.05.645.15.75.124.133.34.202.61.202h.253v.176h-3.042v-.176h.253c.308 0 .522-.09.644-.254.085-.1.113-.337.113-.7v-4.968h-.846c-.336 0-.584.022-.724.067-.176.06-.336.172-.467.346-.127.175-.206.415-.236.704h-.19l.08-1.533h5.852zM81.495 37.528v2.57h1.577c.413 0 .675-.054.825-.168.18-.148.277-.402.297-.772h.205v2.264h-.206c-.046-.32-.093-.518-.15-.618-.06-.107-.16-.2-.3-.257-.147-.062-.367-.1-.67-.1h-1.578v2.146c0 .29.02.464.043.53.023.062.083.115.15.148.07.04.2.057.405.057h1.215c.397 0 .696-.024.88-.08.18-.05.358-.15.527-.302.22-.194.442-.497.664-.898h.225l-.624 1.635h-5.52v-.176h.255c.166 0 .325-.04.48-.11.107-.058.187-.127.23-.232.04-.106.06-.315.06-.633v-4.223c0-.417-.044-.677-.135-.765-.124-.135-.34-.192-.636-.192h-.255v-.183h5.52l.074 1.436h-.202c-.07-.344-.156-.58-.25-.712-.078-.12-.218-.225-.393-.294-.143-.046-.397-.068-.74-.068h-1.975zM96.402 43.682h-1.92l-2.42-3.044c-.18.01-.328.01-.44.01h-.14c-.057 0-.113-.01-.166-.01v1.893c0 .41.042.66.143.762.13.144.328.214.604.214h.284v.176h-3.075v-.176h.267c.313 0 .527-.09.652-.268.08-.097.106-.337.106-.707v-4.21c0-.405-.044-.66-.14-.754-.14-.142-.34-.215-.618-.215h-.267v-.182h2.61c.76 0 1.324.056 1.68.157.36.103.667.284.92.556.252.27.374.594.374.963 0 .41-.14.755-.425 1.045-.28.3-.735.506-1.333.628l1.477 1.865c.34.43.628.713.87.86.244.133.564.227.957.267v.175zm-5.086-3.345h.165c.053 0 .095.005.128.005.677 0 1.195-.133 1.543-.41.35-.26.522-.608.522-1.022 0-.41-.142-.74-.425-.988-.27-.257-.64-.383-1.107-.383-.21 0-.48.03-.824.085v2.712zM104.495 41.5h-2.774l-.488 1.032c-.12.25-.172.448-.172.567 0 .092.045.185.148.256.107.082.33.13.677.152v.176h-2.257v-.176c.296-.052.498-.11.577-.195.188-.147.383-.462.603-.93l2.518-5.36h.188l2.49 5.417c.202.433.378.723.554.85.156.128.386.197.675.218v.176h-2.822v-.176c.285-.017.478-.058.576-.134.103-.068.152-.158.152-.27 0-.144-.073-.36-.208-.664l-.435-.94zm-.15-.353l-1.21-2.63-1.25 2.63h2.46zM110.458 37.167h1.947l4.374 4.894V38.3c0-.404-.047-.647-.147-.748-.13-.137-.342-.2-.62-.2h-.248v-.183h2.498v.183h-.257c-.3 0-.52.08-.65.245-.077.113-.105.343-.105.702v5.492h-.2l-4.715-5.243v4.004c0 .402.047.647.15.752.13.133.33.202.61.202h.262v.176h-2.5v-.176h.248c.308 0 .525-.09.65-.254.074-.1.118-.337.118-.7v-4.524c-.205-.218-.37-.37-.474-.432-.113-.08-.275-.143-.47-.205-.115-.03-.26-.04-.473-.04v-.183zM134.112 37.022l.164 2.215h-.164c-.22-.665-.527-1.14-.928-1.427-.41-.298-.89-.446-1.46-.446-.472 0-.905.114-1.284.33-.394.222-.692.58-.91 1.053-.22.485-.334 1.077-.334 1.79 0 .585.103 1.107.32 1.534.21.428.514.766.928.992.422.232.894.35 1.426.35.47 0 .888-.09 1.233-.27.36-.187.748-.547 1.172-1.08l.173.098c-.364.575-.78 1.002-1.262 1.27-.48.27-1.05.404-1.705.404-1.184 0-2.11-.397-2.756-1.2-.493-.593-.724-1.3-.724-2.107 0-.655.15-1.244.472-1.79.324-.544.76-.966 1.323-1.264.566-.294 1.177-.45 1.844-.45.52 0 1.028.12 1.528.342.15.073.247.114.318.114.094 0 .184-.038.247-.092.095-.086.16-.208.2-.364h.18zM142.013 37.022c.93 0 1.732.322 2.42.972.686.634 1.024 1.44 1.024 2.388 0 .99-.35 1.82-1.032 2.467-.688.656-1.52.983-2.493.983-.986 0-1.812-.323-2.48-.96-.674-.63-1.015-1.462-1.015-2.47 0-1.028.39-1.878 1.163-2.526.68-.572 1.475-.855 2.413-.855zm-.102.346c-.632 0-1.146.228-1.54.654-.48.535-.722 1.33-.722 2.36 0 1.064.247 1.886.748 2.452.388.438.895.655 1.528.655.667 0 1.22-.238 1.658-.714.444-.483.663-1.233.663-2.26 0-1.113-.247-1.944-.72-2.488-.39-.432-.928-.66-1.614-.66zM153.545 43.682l-2.776-5.477v4.348c0 .4.05.646.15.75.125.134.335.203.615.203h.25v.176h-2.493v-.176h.252c.31 0 .518-.09.65-.254.075-.1.117-.337.117-.7V38.3c0-.282-.04-.488-.1-.618-.062-.096-.152-.177-.277-.24-.132-.062-.346-.09-.64-.09v-.183h2.03l2.6 5.1 2.55-5.1h2.03v.183h-.253c-.305 0-.52.08-.646.245-.075.113-.117.343-.117.702v4.255c0 .4.052.646.15.75.13.134.33.203.613.203h.252v.176h-3.04v-.175h.254c.305 0 .518-.09.64-.254.084-.1.115-.336.115-.698v-4.348l-2.76 5.477h-.165zM164.192 40.638v1.893c0 .41.047.66.15.762.137.144.33.214.603.214h.28v.176h-3.07v-.176h.268c.308 0 .523-.09.655-.268.06-.097.102-.337.102-.707v-4.21c0-.405-.043-.66-.134-.754-.136-.142-.348-.215-.622-.215h-.267v-.182h2.625c.637 0 1.146.064 1.51.183.378.122.688.32.94.606.252.285.373.63.373 1.023 0 .53-.187.953-.57 1.29-.387.335-.925.5-1.644.5-.162 0-.35-.01-.555-.033-.196-.03-.41-.06-.643-.1zm0-.28c.19.035.35.06.494.083.142.004.267.02.37.02.37 0 .686-.135.944-.387.272-.255.402-.593.402-1.006 0-.28-.066-.543-.188-.78-.135-.244-.308-.424-.543-.542-.223-.12-.492-.177-.783-.177-.188 0-.41.03-.697.085v2.705zM175.19 41.5h-2.78l-.478 1.032c-.12.25-.186.448-.186.567 0 .092.06.185.164.256.102.082.318.13.664.152v.176h-2.248v-.176c.298-.052.49-.11.58-.195.178-.147.372-.462.598-.93l2.524-5.36h.17l2.502 5.417c.2.433.382.723.548.85.16.128.39.197.68.218v.176h-2.83v-.176c.29-.017.48-.058.583-.134.1-.068.153-.158.153-.27 0-.144-.066-.36-.212-.664l-.43-.94zm-.144-.353l-1.217-2.63-1.256 2.63h2.472zM181.15 37.167h1.94l4.38 4.894V38.3c0-.404-.045-.647-.152-.748-.12-.137-.33-.2-.616-.2h-.245v-.183h2.493v.183h-.254c-.302 0-.512.08-.64.245-.084.113-.12.343-.12.702v5.492h-.183l-4.734-5.243v4.004c0 .402.05.647.148.752.135.133.338.202.618.202h.257v.176h-2.5v-.176h.252c.305 0 .518-.09.65-.254.078-.1.112-.337.112-.7v-4.524c-.2-.218-.36-.37-.463-.432-.116-.08-.264-.143-.482-.205-.09-.03-.25-.04-.462-.04v-.183zM197.504 37.167H200v.183h-.135c-.095 0-.23.04-.4.113-.184.07-.343.172-.49.314-.145.138-.312.362-.53.667l-1.716 2.477v1.63c0 .402.04.647.14.752.128.133.334.202.634.202h.23v.176h-3.038v-.176h.248c.303 0 .518-.09.645-.254.078-.1.12-.337.12-.7v-1.536l-1.962-2.73c-.25-.32-.4-.516-.482-.6-.08-.078-.258-.174-.505-.284-.078-.038-.185-.05-.312-.05v-.184h3.066v.183h-.16c-.17 0-.328.034-.46.1-.144.076-.213.178-.213.32 0 .118.115.326.327.63l1.494 2.093 1.408-2.01c.205-.292.314-.523.314-.67 0-.087-.03-.17-.075-.238-.053-.074-.12-.124-.218-.17-.1-.04-.24-.057-.428-.057v-.18zM82.317 18.15H71.522l-1.88 4.126c-.47 1.022-.695 1.775-.695 2.282 0 .403.202.747.6 1.04.405.316 1.278.504 2.618.595v.708h-8.772v-.707c1.164-.198 1.925-.445 2.26-.756.706-.61 1.478-1.864 2.322-3.75l9.8-21.52h.723l9.69 21.748c.788 1.744 1.493 2.882 2.126 3.396.636.525 1.53.816 2.668.883v.708H81.988v-.707c1.11-.058 1.86-.226 2.248-.525.39-.29.582-.655.582-1.076 0-.566-.273-1.457-.817-2.678l-1.683-3.764zm-.577-1.42L77.012 6.153 72.165 16.73h9.575zM113.694.764v.708c-.99.174-1.74.464-2.242.892-.724.633-1.37 1.592-1.93 2.89l-9.724 22.247h-.757L88.61 4.97c-.536-1.157-.913-1.87-1.137-2.12-.336-.4-.756-.717-1.253-.937-.51-.226-1.173-.375-2.023-.44v-.71h11.38v.71c-1.294.117-2.12.326-2.51.62-.386.297-.575.674-.575 1.137 0 .642.313 1.648.94 3.01l7.092 15.324 6.58-15.13c.635-1.494.963-2.525.963-3.105 0-.376-.196-.73-.594-1.073-.405-.336-1.073-.58-2.017-.722-.066-.01-.187-.03-.35-.063V.764h8.59zM135.322.166l.64 8.886h-.64c-.842-2.657-2.05-4.573-3.635-5.746-1.573-1.168-3.455-1.755-5.662-1.755-1.85 0-3.523.446-5.018 1.324-1.48.882-2.663 2.284-3.52 4.21-.853 1.932-1.287 4.325-1.287 7.2 0 2.355.41 4.41 1.218 6.144.804 1.733 2.024 3.062 3.647 3.987 1.624.933 3.474 1.393 5.555 1.393 1.812 0 3.41-.37 4.788-1.093 1.383-.724 2.906-2.166 4.554-4.327l.646.39c-1.398 2.32-3.028 4.025-4.897 5.103-1.863 1.082-4.07 1.62-6.638 1.62-4.606 0-8.182-1.598-10.714-4.82-1.885-2.39-2.84-5.203-2.84-8.437 0-2.613.626-5.012 1.872-7.194 1.244-2.188 2.963-3.887 5.142-5.084 2.19-1.202 4.568-1.8 7.167-1.8 2.005 0 3.993.465 5.95 1.385.578.29.99.43 1.24.43.362 0 .69-.12.96-.368.355-.348.612-.832.762-1.445h.71zM0 13.39h57.802v.885H0zM142.205 13.39H200v.885h-57.795z"/></svg>