<svg xmlns="http://www.w3.org/2000/svg" xmlns:xlink="http://www.w3.org/1999/xlink" width="41" height="110" viewBox="0 0 41 110"><svg width="41" height="55" viewBox="299.514 292.49 41 55" enable-background="new 309.514 302.49 21 35" id="arrow-left" y="0"><path fill="#FFA500" d="M324.348 303.444c-1.26 1.23-13.584 14.17-13.584 14.17-.673.657-1.008 1.517-1.008 2.377s.335 1.72 1.008 2.38c0 0 12.323 12.938 13.584 14.166 1.26 1.23 3.53 1.316 4.876 0 1.343-1.313 1.448-3.144-.003-4.752l-11.304-11.792 11.306-11.79c1.452-1.612 1.347-3.444.004-4.756-1.348-1.312-3.617-1.23-4.876 0z"/></svg>
<svg width="41" height="55" viewBox="299.514 292.49 41 55" enable-background="new 309.514 302.49 21 35" id="arrow-right" y="55"><path fill="#FFA500" d="M315.68 336.536c1.26-1.23 13.583-14.17 13.583-14.17.673-.657 1.008-1.517 1.008-2.377 0-.86-.333-1.72-1.006-2.38 0 0-12.323-12.938-13.584-14.166-1.262-1.23-3.53-1.316-4.877 0-1.343 1.313-1.448 3.144.003 4.752l11.306 11.792-11.306 11.79c-1.45 1.612-1.346 3.444-.003 4.756 1.35 1.313 3.618 1.23 4.876 0z"/></svg>
</svg>